# xmcd
#
# Track frame offsets:
#	180
#	15246
#	38437
#	54248
#	83423
#	102243
#	118336
#	138135
#	150166
#	178969
#	195134
#	216539
#	230512
#
# Disc length: 3353 seconds
#
# Revision: 1
# Processed by: cddbd v1.4PL0 Copyright (c) Steve Scherf et al.
# Submitted via: audiograbber 1.81.01
#
DISCID=950d170d
DTITLE=Red Rooster - On The Move
DYEAR=1998
DGENRE=Blues
TTITLE0=Saturday Night
TTITLE1=Wish You Were Here
TTITLE2=Move On 2
TTITLE3=I Got The Blues
TTITLE4=Dreamworld
TTITLE5=Never Give Up
TTITLE6=Cup Of Tea
TTITLE7=Brown Virgin
TTITLE8=Moanin'
TTITLE9=Liar
TTITLE10=Don't Know Why
TTITLE11=Dragonfly
TTITLE12=Newborn
EXTD=
EXTT0=
EXTT1=
EXTT2=
EXTT3=
EXTT4=
EXTT5=
EXTT6=
EXTT7=
EXTT8=
EXTT9=
EXTT10=
EXTT11=
EXTT12=
PLAYORDER=
